<svg id="visual" viewBox="0 0 960 540" width="960" height="540" xmlns="http://www.w3.org/2000/svg"
    xmlns:xlink="http://www.w3.org/1999/xlink" version="1.1">
    <rect x="0" y="0" width="960" height="540" fill="rgba(0,18,32,0)"></rect>
    <defs>
        <linearGradient id="grad1_0" x1="43.8%" y1="100%" x2="100%" y2="0%">
            <stop offset="14.444444444444446%" stop-color="#001220" stop-opacity="1"></stop>
            <stop offset="85.55555555555554%" stop-color="#001220" stop-opacity="1"></stop>
        </linearGradient>
    </defs>
    <defs>
        <linearGradient id="grad2_0" x1="0%" y1="100%" x2="56.3%" y2="0%">
            <stop offset="14.444444444444446%" stop-color="#001220" stop-opacity="1"></stop>
            <stop offset="85.55555555555554%" stop-color="#001220" stop-opacity="1"></stop>
        </linearGradient>
    </defs>
    <g transform="translate(960, 540)">
        <path
            d="M-243 0C-228.1 -37.3 -213.2 -74.7 -194.9 -112.5C-176.5 -150.3 -154.6 -188.6 -121.5 -210.4C-88.4 -232.3 -44.2 -237.6 0 -243L0 0Z"
            fill="#334155"></path>
    </g>
    <g transform="translate(0, 0)">
        <path
            d="M243 0C224.9 35.5 206.8 70.9 188.8 109C170.8 147.1 152.9 187.7 121.5 210.4C90.1 233.2 45 238.1 0 243L0 0Z"
            fill="#334155"></path>
    </g>
</svg>