<svg id="visual" viewBox="0 0 960 540" width="960" height="540" xmlns="http://www.w3.org/2000/svg" xmlns:xlink="http://www.w3.org/1999/xlink" version="1.1"><rect x="0" y="0" width="960" height="540" fill="#334155"></rect><g transform="translate(434.3568776650483 434.97808749133117)"><path d="M240 -289.8C336 -205.5 456.1 -153.5 480.8 -75.5C505.6 2.4 435.1 106.5 352 158.8C268.8 211.1 173.1 211.7 103.6 200.5C34.2 189.2 -8.9 165.9 -52.1 148C-95.3 130.2 -138.6 117.6 -200 81.4C-261.4 45.3 -341 -14.4 -375.5 -109.2C-410 -203.9 -399.4 -333.7 -329.3 -422.6C-259.3 -511.5 -129.6 -559.5 -28.8 -525.1C72 -490.8 144 -374.1 240 -289.8" fill="#001122"></path></g></svg>

